<svg width="138" height="32" viewBox="0 0 138 32" fill="none" xmlns="http://www.w3.org/2000/svg">
<g clip-path="url(#clip0_537_5371)">
<path d="M5.34801 21.3095L0.0010376 26.6564L5.34801 32.0034L10.695 26.6564L5.34801 21.3095Z" fill="#72B343"/>
<path d="M12.4634 14.1964L7.11646 19.5434L12.4634 24.8903L17.8104 19.5434L12.4634 14.1964Z" fill="#FF9334"/>
<path d="M5.43266 7.11553L0.0856934 12.4625L5.43266 17.8095L10.7796 12.4625L5.43266 7.11553Z" fill="#E73E99"/>
<path d="M12.5481 -0.00401184L7.20111 5.34296L12.5481 10.6899L17.895 5.34296L12.5481 -0.00401184Z" fill="#1A50AE"/>
<path d="M36.1011 22.2325C36.1002 22.0716 36.0828 21.9112 36.0493 21.7538C36.0026 21.5858 35.9109 21.4337 35.7841 21.3139C35.61 21.1469 35.4115 21.0073 35.1955 20.9C34.8498 20.7286 34.4907 20.5858 34.1217 20.473L32.5822 20.0073C31.7115 19.7537 30.9236 19.2738 30.2988 18.6165C29.9767 18.2771 29.7256 17.8769 29.5602 17.4393C29.3947 17.0017 29.3181 16.5355 29.3349 16.0679C29.3391 15.4756 29.4831 14.8927 29.7554 14.3667C30.0209 13.8386 30.3854 13.3664 30.8292 12.976C31.2949 12.5747 31.8267 12.2573 32.401 12.038C33.0022 11.8095 33.6402 11.6932 34.2834 11.6952C34.9679 11.6762 35.6469 11.8226 36.2628 12.1221C36.7825 12.3838 37.2496 12.739 37.6406 13.17C37.9959 13.5622 38.2804 14.0131 38.4815 14.5025C38.6568 14.9153 38.7722 15.3509 38.8243 15.7963H35.5771C35.5511 15.6746 35.5143 15.5556 35.4671 15.4405C35.4105 15.285 35.3274 15.1406 35.2213 15.0136C35.0879 14.845 34.9161 14.7108 34.7204 14.6219C34.5246 14.533 34.3105 14.4921 34.0958 14.5025C33.6938 14.4954 33.299 14.6104 32.9638 14.8324C32.8048 14.9362 32.6758 15.0797 32.5895 15.2488C32.5033 15.4179 32.4628 15.6067 32.4722 15.7963C32.4665 16.0073 32.5404 16.2128 32.6792 16.372C32.8218 16.5437 32.9978 16.6845 33.1967 16.7859C33.4047 16.8953 33.621 16.9883 33.8435 17.0641C34.0764 17.1352 34.2963 17.2064 34.4904 17.284L36.004 17.8015C36.9513 18.1047 37.7986 18.6591 38.4556 19.4057C39.1033 20.2257 39.4299 21.2537 39.3742 22.2972C39.3856 22.9416 39.239 23.579 38.9472 24.1536C38.6693 24.6863 38.2812 25.1538 37.8088 25.525C37.3159 25.9113 36.757 26.205 36.1593 26.3918C35.5328 26.5961 34.8776 26.6987 34.2187 26.6958C33.5383 26.6981 32.8639 26.5685 32.2329 26.3141C31.6205 26.0572 31.0612 25.6887 30.5834 25.2274C30.1117 24.7677 29.7338 24.2206 29.4708 23.6167C29.1924 22.9738 29.0514 22.2798 29.0568 21.5791H32.2911C32.2923 21.8396 32.3293 22.0986 32.401 22.3489C32.4689 22.5998 32.5854 22.835 32.7439 23.041C32.9086 23.2503 33.1158 23.4223 33.3519 23.5456C33.7089 23.7189 34.108 23.7867 34.5023 23.7408C34.8965 23.695 35.2694 23.5375 35.5771 23.2869C35.7334 23.1576 35.8607 22.9969 35.951 22.8153C36.0413 22.6337 36.0924 22.4351 36.1011 22.2325V22.2325Z" fill="black"/>
<path d="M62.0336 19.1793C62.0438 20.1941 61.8456 21.2003 61.4514 22.1354C61.0862 23.0239 60.5449 23.8293 59.8602 24.5029C59.1606 25.1947 58.3314 25.7417 57.4201 26.1124C56.5088 26.4831 55.5333 26.6704 54.5495 26.6634C53.5427 26.6697 52.5454 26.4693 51.6192 26.0748C49.8339 25.3163 48.4124 23.8949 47.654 22.1096C47.2654 21.1815 47.0653 20.1854 47.0653 19.1793C47.0653 18.1732 47.2654 17.1771 47.654 16.249C48.4104 14.4639 49.8328 13.0438 51.6192 12.2903C52.5441 11.8907 53.542 11.688 54.5495 11.6952C55.3669 11.7013 56.1753 11.866 56.9299 12.1803C57.6396 12.4366 58.2954 12.8227 58.864 13.3188V6.85022H62.0336V19.1793ZM58.8381 19.1793C58.8432 18.6071 58.7263 18.0404 58.4953 17.5169C58.0607 16.4873 57.2414 15.668 56.2119 15.2335C55.6857 15.0073 55.119 14.8906 54.5462 14.8906C53.9735 14.8906 53.4067 15.0073 52.8806 15.2335C52.3729 15.458 51.912 15.7762 51.5222 16.1714C51.1317 16.565 50.8181 17.0278 50.5972 17.5363C50.3711 18.0614 50.2546 18.627 50.2546 19.1987C50.2546 19.7704 50.3711 20.336 50.5972 20.8611C50.8181 21.3696 51.1317 21.8324 51.5222 22.226C51.9137 22.6143 52.3744 22.9258 52.8806 23.1445C53.4057 23.3749 53.9728 23.4938 54.5462 23.4938C55.1196 23.4938 55.6868 23.3749 56.2119 23.1445C57.2414 22.71 58.0607 21.8907 58.4953 20.8611C58.7387 20.3339 58.8645 19.76 58.864 19.1793H58.8381Z" fill="black"/>
<path d="M66.6844 19.4057C66.7013 19.9587 66.8312 20.5025 67.0661 21.0034C67.3005 21.4863 67.618 21.9242 68.004 22.2971C68.397 22.6643 68.8527 22.9579 69.3495 23.1639C69.8654 23.3725 70.4166 23.4801 70.9731 23.4809C71.8434 23.5037 72.6995 23.2575 73.4247 22.7758C74.0994 22.3131 74.6181 21.6568 74.9125 20.8935H78.4055C78.1394 21.8435 77.7199 22.7437 77.1635 23.5585C76.2425 24.9212 74.8668 25.9117 73.2824 26.3529C72.5288 26.565 71.7495 26.6717 70.9666 26.6699C69.96 26.6748 68.963 26.4746 68.0364 26.0813C67.1547 25.7006 66.3518 25.1588 65.6689 24.4835C64.9915 23.8024 64.4493 22.9991 64.0712 22.116C63.2949 20.2396 63.2949 18.1319 64.0712 16.2555C64.4493 15.3725 64.9915 14.5691 65.6689 13.888C66.3534 13.2117 67.1586 12.6698 68.0428 12.2903C68.9681 11.8919 69.9658 11.6893 70.9731 11.6952C72.0449 11.6825 73.1066 11.9032 74.0845 12.342C74.9728 12.7408 75.7697 13.3176 76.4261 14.0368C77.074 14.7551 77.5809 15.589 77.9203 16.4948C78.2805 17.4261 78.4732 18.4138 78.4896 19.4122L66.6844 19.4057ZM74.9125 17.2581C74.6208 16.4848 74.1134 15.8113 73.4506 15.3176C72.7421 14.7929 71.8838 14.5097 71.0022 14.5097C70.1206 14.5097 69.2623 14.7929 68.5539 15.3176C67.891 15.8098 67.3854 16.484 67.0984 17.2581H74.9125Z" fill="black"/>
<path d="M87.0475 7.0184H90.23V13.487C90.7884 12.9936 91.4331 12.6076 92.1318 12.3485C92.8843 12.0357 93.6908 11.873 94.5057 11.8698C95.5106 11.8611 96.5063 12.0616 97.4295 12.4585C99.2043 13.2159 100.618 14.6295 101.375 16.4043C101.761 17.3263 101.96 18.3157 101.96 19.3151C101.96 20.3146 101.761 21.304 101.375 22.226C100.621 24.0044 99.2066 25.421 97.4295 26.1783C96.5063 26.5752 95.5106 26.7756 94.5057 26.7669C93.5254 26.774 92.5533 26.5873 91.6453 26.2176C90.7373 25.848 89.9112 25.3026 89.2145 24.6129C88.5311 23.943 87.9899 23.1422 87.6232 22.2583C87.2317 21.3248 87.0358 20.3209 87.0475 19.3087V7.0184ZM90.23 19.3087C90.2249 19.8788 90.3418 20.4434 90.5729 20.9646C90.7877 21.4729 91.0997 21.9344 91.4914 22.323C91.8747 22.7296 92.334 23.057 92.8433 23.2868C93.3684 23.5129 93.9341 23.6295 94.5057 23.6295C95.0774 23.6295 95.6431 23.5129 96.1682 23.2868C96.6737 23.0705 97.1327 22.7586 97.5201 22.3683C97.9118 21.9797 98.2238 21.5182 98.4386 21.0099C98.6697 20.4887 98.7866 19.9241 98.7815 19.354C98.7859 18.7818 98.6691 18.2152 98.4386 17.6915C98.2222 17.186 97.9104 16.727 97.5201 16.3396C97.1312 15.9495 96.6727 15.6357 96.1682 15.4146C95.6431 15.1886 95.0774 15.072 94.5057 15.072C93.9341 15.072 93.3684 15.1886 92.8433 15.4146C92.3388 15.6357 91.8802 15.9495 91.4914 16.3396C91.0985 16.7201 90.7823 17.1725 90.5599 17.6721C90.3339 18.1968 90.2215 18.7633 90.23 19.3346V19.3087Z" fill="black"/>
<path d="M103.406 6.5009C103.397 6.19744 103.449 5.8952 103.561 5.61269C103.672 5.33019 103.839 5.07334 104.053 4.85788C104.258 4.64798 104.504 4.48229 104.776 4.37103C105.047 4.25978 105.338 4.20533 105.632 4.21103C105.935 4.20204 106.238 4.25533 106.52 4.36764C106.802 4.47994 107.059 4.64887 107.273 4.86402C107.488 5.07916 107.656 5.33596 107.767 5.61859C107.879 5.90122 107.931 6.2037 107.922 6.50737C107.927 6.80063 107.872 7.09189 107.761 7.36329C107.65 7.63469 107.484 7.88052 107.275 8.0857C107.059 8.29961 106.802 8.46732 106.52 8.57854C106.237 8.68976 105.935 8.74217 105.632 8.73256C105.04 8.73256 104.472 8.49744 104.054 8.07892C103.635 7.6604 103.4 7.09277 103.4 6.5009H103.406ZM103.808 11.734H107.469V26.7863H103.808V11.734Z" fill="black"/>
<path d="M41.1336 6.50092C41.124 6.19746 41.1764 5.89522 41.2876 5.61271C41.3988 5.33021 41.5665 5.07336 41.7805 4.8579C41.9826 4.64922 42.225 4.48372 42.4929 4.37142C42.7609 4.25912 43.0489 4.20236 43.3394 4.20458C43.6434 4.19563 43.946 4.24891 44.2286 4.36115C44.5113 4.47338 44.768 4.64221 44.9831 4.85725C45.1981 5.07229 45.3669 5.32902 45.4792 5.61167C45.5914 5.89432 45.6447 6.19693 45.6357 6.50092C45.6407 6.79413 45.5859 7.08528 45.4747 7.35662C45.3634 7.62797 45.1982 7.87384 44.9889 8.07925C44.7734 8.29317 44.5166 8.46087 44.2341 8.57209C43.9515 8.68331 43.6493 8.73572 43.3459 8.72611C42.754 8.72611 42.1863 8.49099 41.7678 8.07247C41.3493 7.65395 41.1142 7.08632 41.1142 6.49445L41.1336 6.50092ZM41.5411 11.734H45.1959V26.7863H41.5411V11.734Z" fill="black"/>
<path d="M110.444 11.721H122.903L115.438 23.2868H122.903V26.7863H108.801L116.24 15.2141H110.418L110.444 11.721Z" fill="black"/>
<path d="M125.173 11.721H137.638L130.161 23.2868H137.638V26.7863H123.55L130.988 15.2141H125.167L125.173 11.721Z" fill="black"/>
</g>
<defs>
<clipPath id="clip0_537_5371">
<rect width="137.638" height="32" fill="white"/>
</clipPath>
</defs>
</svg>
